<?xml version="1.0"?>
<svg xmlns="http://www.w3.org/2000/svg" xmlns:xlink="http://www.w3.org/1999/xlink" xmlns:svgjs="http://svgjs.com/svgjs" version="1.1" width="512" height="512" x="0" y="0" viewBox="0 0 128 128" style="enable-background:new 0 0 512 512" xml:space="preserve"><g><g xmlns="http://www.w3.org/2000/svg"><path d="m31.21 92.619h.109a1.75 1.75 0 0 0 1.639-1.855l-.7-11.369a1.75 1.75 0 1 0 -3.493.216l.7 11.37a1.749 1.749 0 0 0 1.745 1.638z" fill="#f43b47" data-original="#000000" style=""/><path d="m115.5 29.042h-5v-1.852a4.75 4.75 0 1 0 -9.5 0v1.852h-88.5a7.759 7.759 0 0 0 -7.75 7.75v18.428a10.806 10.806 0 0 0 7.79 10.333l4.587 1.308a7.26 7.26 0 0 1 5.236 6.528l1.54 24.9a7.772 7.772 0 0 0 7.737 7.27h10.3a1.75 1.75 0 0 0 1.728-1.473l2.973-18.516h7.869a13.766 13.766 0 0 0 13.75-13.75v-3.07h37.33a7.791 7.791 0 0 0 7.684-6.7l.854-6.3h7.372a1.75 1.75 0 0 0 1.75-1.75v-17.208a7.759 7.759 0 0 0 -7.75-7.75zm-11-1.852a1.248 1.248 0 0 1 2.133-.882 1.23 1.23 0 0 1 .367.882v1.852h-2.5zm-14.667 5.352v5.5h-24.083v-5.5zm-25.073 39.278a10.261 10.261 0 0 1 -10.25 10.25h-7.31l2.138-13.32h5.673l-.743 5.25a1.749 1.749 0 1 0 3.464.492l.817-5.746h6.211zm45.047-10.25a4.277 4.277 0 0 1 -4.217 3.68h-57.74a1.75 1.75 0 0 0 -1.728 1.473l-5.673 35.337h-8.809a4.264 4.264 0 0 1 -4.24-3.989l-1.54-24.9a10.762 10.762 0 0 0 -7.77-9.671l-4.59-1.312a7.275 7.275 0 0 1 -5.21-6.438h102.31zm9.943-9.32h-111.5v-15.458a4.255 4.255 0 0 1 4.25-4.25h49.75v7.25a1.75 1.75 0 0 0 1.75 1.75h27.583a1.749 1.749 0 0 0 1.75-1.75v-7.25h22.167a4.255 4.255 0 0 1 4.25 4.25z" fill="#f43b47" data-original="#000000" style=""/><path d="m24.624 37.646a1.75 1.75 0 0 0 -1.75 1.75v6a1.75 1.75 0 0 0 3.5 0v-6a1.75 1.75 0 0 0 -1.75-1.75z" fill="#f43b47" data-original="#000000" style=""/><path d="m33.062 37.646a1.749 1.749 0 0 0 -1.75 1.75v6a1.75 1.75 0 0 0 3.5 0v-6a1.75 1.75 0 0 0 -1.75-1.75z" fill="#f43b47" data-original="#000000" style=""/><path d="m41.5 37.646a1.75 1.75 0 0 0 -1.75 1.75v6a1.75 1.75 0 0 0 3.5 0v-6a1.75 1.75 0 0 0 -1.75-1.75z" fill="#f43b47" data-original="#000000" style=""/></g></g></svg>
