<svg height="477pt" viewBox="-15 0 477 477.22097" width="477pt" xmlns="http://www.w3.org/2000/svg"><path d="m421.332031 1.261719c14.398438.128906 25.976563 11.371093 25.859375 25.121093l-.550781 85.578126c-.109375 13.75-11.878906 24.800781-26.269531 24.679687l-66.871094-.390625-71.558594 56.519531 3.5-57.089843-15.730468-.296876c-14.390626-.121093-25.96875-11.371093-25.851563-25.121093l.550781-85.582031c.109375-13.75 11.871094-24.796876 26.269532-24.679688l131.101562 1.101562zm0 0" fill="#00efd1"/><path d="m249.492188 421.070312v56.152344h-249.382813v-56.152344c-.003906-32.691406 26.496094-59.199218 59.191406-59.199218h30.039063v1.121094c0 19.464843 15.78125 35.242187 35.246094 35.242187 19.464843 0 35.246093-15.777344 35.246093-35.242187v-1.121094h30.46875c32.691407 0 59.195313 26.507812 59.191407 59.199218zm0 0" fill="#00acea"/><path d="m220.371094 199.0625c9.75 24.160156 8.589844 50.4375-1.402344 74.296875-8.359375 19.960937-21.769531 37.589844-37 52.800781-6.859375 6.992188-14.261719 13.433594-22.136719 19.261719v-13.761719l-.011719-.007812c21.996094-12.925782 35.496094-36.539063 35.480469-62.050782v-29.019531l.101563-6.839843c.351562-16.386719-7.625-31.832032-21.191406-41.03125-5.371094-3.632813-11.492188-6.003907-17.910157-6.941407-35.058593 64.160157-98.070312 70.332031-100.53125 70.542969-.046875.007812-.097656.011719-.148437.007812-.464844 0-.910156.183594-1.238282.511719-.328124.328125-.511718.773438-.511718 1.238281v12.421876c-.011719 25.3125 13.519531 48.699218 35.46875 61.308593v10.339844c-39.660156-20.300781-64.929688-63.390625-66.75-107.589844-.761719-16.996093 2.78125-33.910156 10.300781-49.167969 13.140625-26.371093 37.789063-45.332031 65.898437-53.453124 18.5-5.347657 36.710938-3.417969 52.042969 4.382812 14.597657 7.429688 26.589844 20.179688 33.738281 37.046875l.488282 1.492187c17.230468-4.089843 29.5625 9.960938 35.3125 24.210938zm0 0" fill="#4b5d63"/><path d="m89.339844 331.800781c-21.949219-12.609375-35.480469-35.996093-35.46875-61.308593v-12.421876c0-.464843.183594-.910156.511718-1.238281.328126-.328125.773438-.511719 1.238282-.511719.050781.003907.101562 0 .148437-.007812 2.460938-.210938 65.472657-6.382812 100.53125-70.542969 6.417969.9375 12.539063 3.308594 17.910157 6.941407 13.566406 9.199218 21.542968 24.644531 21.191406 41.03125l-.101563 6.839843v29.019531c.015625 25.511719-13.484375 49.125-35.480469 62.050782-10.527343 6.171875-22.496093 9.464844-34.699218 9.546875-12.554688.121093-24.90625-3.125-35.78125-9.398438zm0 0" fill="#f7caa5"/><path d="m89.339844 342.140625v-10.339844c10.875 6.273438 23.226562 9.519531 35.78125 9.398438 12.203125-.082031 24.171875-3.375 34.699218-9.546875l.011719.007812v31.332032c0 19.464843-15.78125 35.242187-35.246093 35.242187-19.464844 0-35.246094-15.777344-35.246094-35.242187zm0 0" fill="#edb288"/><g fill="#fedb41"><path d="m395.128906 54.929688h-99.207031c-3.316406 0-6-2.683594-6-6 0-3.3125 2.683594-6 6-6h99.207031c3.316406 0 6 2.6875 6 6 0 3.316406-2.683594 6-6 6zm0 0"/><path d="m355.941406 89.839844h-60.019531c-3.316406 0-6-2.683594-6-6 0-3.3125 2.683594-6 6-6h60.019531c3.3125 0 6 2.6875 6 6 0 3.316406-2.6875 6-6 6zm0 0"/></g></svg>