<?xml version="1.0"?>
<svg xmlns="http://www.w3.org/2000/svg" xmlns:xlink="http://www.w3.org/1999/xlink" xmlns:svgjs="http://svgjs.com/svgjs" version="1.1" width="512" height="512" x="0" y="0" viewBox="0 0 512.031 512.031" style="enable-background:new 0 0 512 512" xml:space="preserve" class=""><g><g xmlns="http://www.w3.org/2000/svg"><path d="m90.391 180.75h30v30h-30z" fill="#f43b47" data-original="#000000" style="" class=""/><path d="m150.641 180.75h30v30h-30z" fill="#f43b47" data-original="#000000" style="" class=""/><path d="m210.891 180.75h30v30h-30z" fill="#f43b47" data-original="#000000" style="" class=""/><path d="m271.141 180.75h30v30h-30z" fill="#f43b47" data-original="#000000" style="" class=""/><path d="m331.391 180.75h30v30h-30z" fill="#f43b47" data-original="#000000" style="" class=""/><path d="m391.641 180.75h30v30h-30z" fill="#f43b47" data-original="#000000" style="" class=""/><path d="m512.016 224.311v-57.06l-120.928-42.527c-5.511-69.696-63.984-124.724-135.072-124.724s-129.562 55.028-135.072 124.724l-120.928 42.527v57.06l116.603 41.006-54.076 162.197-32.402 23.798v60.719h90.25v-60.719l-27.439-20.152 53.375-160.097h45.437l-44.119 240.969h216.742l-44.119-240.969h45.375l53.375 160.097-27.439 20.152v60.719h90.25v-60.719l-32.402-23.798-54.069-162.177zm-256-194.311c53.081 0 97.124 39.407 104.429 90.5h-208.858c7.305-51.093 51.348-90.5 104.429-90.5zm-226 158.502 108.06-38.002h235.879l108.061 38.001v14.558l-108.061 38.002h-235.879l-108.06-38.001zm60.375 293.529h-30.25v-15.531l15.125-11.108 15.125 11.108zm238.004 0h-144.758l38.626-210.969h67.505zm123.433 0h-30.25v-15.531l15.125-11.108 15.125 11.108z" fill="#f43b47" data-original="#000000" style="" class=""/></g></g></svg>
